<svg xmlns="http://www.w3.org/2000/svg" viewBox="0 0 512 512" role="img" aria-label="SecureLint Green Logo">
  <defs>
    <linearGradient id="gradGreen" x1="0" y1="0" x2="0" y2="1">
      <stop offset="0%" stop-color="#2DD4BF"></stop>
      <stop offset="100%" stop-color="#0BA37F"></stop>
    </linearGradient>
  </defs>

  <!-- Droplet shape (bottom-left sharp corner) -->
  <path fill="url(#gradGreen)" d="M512 256C512 114.6 397.4 0 256 0S0 114.6 0 256c0 141.4 114.6 256 256 256h256V256z"></path>

  <!-- Clean, professional S -->
  <path fill="#ffffff" d="M180 210c0-45 38-75 95-75 36 0 70 12 93 29 7 5 8 16 2 23-6 7-17 9-24 3-17-13-41-21-67-21-31 0-52 13-52 33 0 56 172 22 172 116 0 49-44 80-104 80-41 0-79-12-106-33-7-5-8-16-3-24 6-8 17-9 24-3 22 16 50 25 81 25 36 0 60-13 60-34 0-50-171-21-171-116z"></path>
</svg>
