<svg width="148" height="54" viewBox="0 0 148 54" fill="none" xmlns="http://www.w3.org/2000/svg">
<g clip-path="url(#clip0_401_56906)">
<path d="M20.4562 0L0 25.5984L20.4562 36.7767V0Z" fill="#F37046"/>
<path d="M20.457 0L40.9132 25.5984L20.457 36.7767V0Z" fill="#CF1E4D"/>
<path d="M0 25.5986L20.4562 36.5533V53.544L0 25.5986Z" fill="#EF3647"/>
<path d="M40.9132 25.5986L20.457 36.5533V53.544L40.9132 25.5986Z" fill="#9C1D57"/>
<path d="M145.824 17.1632C144.38 15.6341 142.43 14.8691 139.976 14.8691C136.992 14.8691 134.724 16.1669 133.17 18.7632C131.679 16.1669 129.457 14.8691 126.505 14.8691C124.051 14.8691 122.101 15.6341 120.655 17.1632C119.209 18.6923 118.488 20.7388 118.488 23.3052V36.3294H122.218V23.7218C122.218 22.115 122.624 20.8489 123.429 19.9217C124.238 18.9945 125.34 18.5318 126.74 18.5318H126.832C128.23 18.5318 129.333 18.9962 130.143 19.9217C130.645 20.4989 130.99 21.2058 131.181 22.0442C131.185 22.0621 131.188 22.0809 131.192 22.1014C131.206 22.1628 131.215 22.2269 131.227 22.2918C131.313 22.816 131.356 23.5237 131.356 24.4185V36.3302H135.137V24.4185C135.137 23.5237 135.18 22.816 135.266 22.2918C135.277 22.2277 135.286 22.1637 135.301 22.1014C135.305 22.0834 135.307 22.0621 135.312 22.0442C135.503 21.2066 135.848 20.4963 136.35 19.9217C136.905 19.2857 137.6 18.8733 138.431 18.6744C138.841 18.5847 139.286 18.5344 139.772 18.5326C141.16 18.5369 142.256 18.9997 143.06 19.9226C143.26 20.1539 143.435 20.4058 143.587 20.6782C143.587 20.6782 143.59 20.6824 143.592 20.685C143.963 21.3577 144.181 22.162 144.248 23.0909C144.262 23.4256 144.271 23.8055 144.271 24.2358V36.3328H148V23.3086C148 20.7447 147.277 18.6957 145.834 17.1666L145.825 17.1641L145.824 17.1632Z" fill="white"/>
<path d="M111.111 14.7685C111.111 14.7685 111.12 14.7685 111.125 14.7727C111.139 14.7497 111.132 14.7497 111.111 14.7685Z" fill="white"/>
<path d="M97.7009 18.5479H108.706C109.035 18.5479 109.298 18.816 109.291 19.1447L109.242 21.8716C109.242 22.459 109.177 22.996 109.046 23.481C108.914 23.9667 108.729 24.4013 108.487 24.7881C108.243 25.1535 107.932 25.431 107.55 25.623C107.166 25.8151 106.724 25.9125 106.22 25.9125H97.6992V29.5085H98.3421L99.9822 29.5341C100.169 29.541 100.35 29.6007 100.503 29.7049L101.104 30.1121L108.121 36.2131C108.258 36.331 108.434 36.3958 108.614 36.3958H114.243L106.28 29.5102L106.688 29.5008C107.876 29.4411 108.961 29.1679 109.941 28.659C111.921 27.766 113.302 25.7656 113.302 23.4434V19.2113C113.302 16.8242 111.377 14.8887 109.002 14.8887H97.7112" fill="white"/>
<path d="M71.0938 36.3311H67.4414V26.8731C67.4414 24.3263 66.7866 22.296 65.4786 20.7797C64.2005 19.2336 62.4657 18.4609 60.2741 18.4609C58.2959 18.4609 56.6217 19.1585 55.2522 20.5526C53.8828 21.9468 53.1972 23.645 53.1972 25.6454C53.1972 27.6457 53.8819 29.3285 55.2522 30.6928C56.6217 32.0571 58.3258 32.7384 60.3654 32.7384C62.1916 32.7384 64.0477 31.9052 65.9354 30.2377V34.1027C64.9612 34.9215 64.0178 35.4969 63.1043 35.8308C62.1908 36.1646 61.1261 36.3311 59.9086 36.3311C56.9862 36.3311 54.506 35.3006 52.4672 33.2387C50.4276 31.1777 49.4082 28.6463 49.4082 25.6454C49.4082 22.6444 50.4583 20.1437 52.5586 18.052C54.6887 15.9304 57.2765 14.8691 60.3193 14.8691C63.3621 14.8691 65.996 15.9304 68.0348 18.052C70.0744 20.1736 71.0938 22.8715 71.0938 26.1457V36.3311Z" fill="white"/>
<path d="M89.7644 14.8691H93.451V26.8287C93.451 29.7024 92.6211 32.005 90.9623 33.7356C89.3034 35.4662 87.1067 36.3311 84.3729 36.3311C81.6392 36.3311 79.4885 35.4653 77.8297 33.7356C76.1708 32.005 75.3418 29.7024 75.3418 26.8287V14.8691H79.0283V25.9476C79.0283 28.0803 79.4894 29.7332 80.4106 30.9071C81.3318 32.081 82.6372 32.6684 84.3277 32.6684C85.2796 32.6684 86.1402 32.4524 86.9077 32.0196C87.706 31.5867 88.3822 30.9378 88.9354 30.073C89.4887 29.1765 89.7644 27.6935 89.7644 25.6232V14.8691Z" fill="white"/>
</g>
<defs>
<clipPath id="clip0_401_56906">
<rect width="148" height="53.5438" fill="white"/>
</clipPath>
</defs>
</svg>
