<?xml version="1.0" encoding="utf-8"?>
<!-- Generator: Adobe Illustrator 25.3.1, SVG Export Plug-In . SVG Version: 6.00 Build 0)  -->
<svg version="1.1" id="Layer_1" xmlns="http://www.w3.org/2000/svg" xmlns:xlink="http://www.w3.org/1999/xlink" x="0px" y="0px"
	 viewBox="0 0 1554.51 742.11" style="enable-background:new 0 0 1554.51 742.11;" xml:space="preserve">
<style type="text/css">
	.st0{fill:#9554FF;}
	.st1{fill:#06002F;}
</style>
<g>
	<path class="st0" d="M421.42,488.42c-4.88-31.89-14.34-62-32.52-88.93c-14.46-21.44-45.56-31.73-73.38-28.73
		c-0.19,0-0.42,0.04-0.6,0.04c-19.3,2.41-36.62,3.45-51.67,3.76c-15.06-0.3-32.38-1.35-51.69-3.76c-0.18,0-0.41-0.04-0.59-0.04
		c-27.84-3-58.94,7.29-73.4,28.73c-18.17,26.93-27.63,57.05-32.52,88.93c-2.92,19.3-4.36,38.54,0.56,57.7
		c2.07,7.96,4.92,16.9,13.87,18.47c0.79,0.15,1.58,0.23,2.29,0.23c8.27,0.38,12.73-5.97,16.71-12.32c3.5-5.56,8.04-19.68,8.04-19.68
		c31.69,57.36,74.32,85.52,116.73,85.71c42.4-0.18,85.03-28.35,116.72-85.71c0,0,4.55,14.12,8.04,19.68
		c3.98,6.36,8.46,12.7,16.71,12.32c0.71,0,1.51-0.08,2.3-0.23c8.93-1.58,11.79-10.51,13.85-18.47
		C425.78,526.96,424.35,507.73,421.42,488.42z M243.18,564.17l10.01-60.14h-45.23l75.28-89.97l-9.94,59.75l45.18,0.29L243.18,564.17
		z"/>
	<path class="st0" d="M300.63,243.85c-12.85-0.11-15.17,10.74-15.06,21.26c0.11,10.03,3.34,19.76,15.02,19.46
		c7.81-0.23,11.15-4.99,12.92-10.96c1.81-6.12,1.81-12.71,0.02-18.84C311.77,248.74,308.45,243.9,300.63,243.85z"/>
	<path class="st0" d="M227.05,243.84c-12.84-0.11-15.17,10.74-15.06,21.26c0.11,10.03,3.34,19.76,15.02,19.46
		c7.81-0.23,11.15-4.99,12.92-10.96c1.81-6.12,1.81-12.71,0.02-18.84C238.19,248.73,234.86,243.89,227.05,243.84z"/>
	<path class="st0" d="M400.24,213.25c-5.93-3.27-12.54-5.15-17.46-10.45c-26.25-28.24-59.53-42.14-97.12-47.51
		c-19.5-2.78-21.86-7.74-11.5-23.81c5.15-8.04,6.61-15.17-1.27-21.29c-6.6-5.15-14.23-4.81-20.47,1.24
		c-6.65,6.42-4.54,12.69,0.23,19.9c10.37,15.52,7.74,21.07-11.19,23.89c-37.49,5.56-70.8,19.27-97.43,47.18
		c-3.3,3.49-8,5.82-12.32,8.07c-35.67,18.74-39.7,50.33-9.84,78.12c1.85,1.68,3.98,3.19,5.27,5.26
		c31.21,51.31,81.05,64.33,131.63,67.01c51.01-1.13,93.37-12.4,126.92-47.07c8.63-8.93,13.7-20.35,23.5-28.8
		C433.66,263.98,428.7,228.83,400.24,213.25z M336.09,304.8c-18.52,11.31-43.83,17.5-64.94,17.55
		c-32.82,0.41-57.73-4.21-80.38-17.61c-32.6-19.35-34.7-51.35-5.14-74.44c39.13-30.61,115.56-30.76,155.07-0.3
		C372.15,254.17,370.3,283.92,336.09,304.8z"/>
</g>
<g>
	<path class="st1" d="M672.3,332.01c12.74,7.52,22.05,17.58,27.91,30.16c5.86,12.59,8.79,26.64,8.79,42.16
		c0,15.52-3.01,29.57-9.03,42.16c-6.02,12.59-15.44,22.65-28.26,30.16c-12.83,7.52-28.98,11.28-48.45,11.28h-62.47V320.73h62.47
		C643.2,320.73,659.55,324.49,672.3,332.01z M654.25,451.72c7.52-5.14,13.14-11.91,16.86-20.31c3.72-8.39,5.58-17.42,5.58-27.08
		c0-9.66-1.86-18.68-5.58-27.08c-3.72-8.39-9.34-15.16-16.86-20.31c-7.52-5.14-16.67-7.72-27.43-7.72h-33.73v110.21h33.73
		C637.58,459.44,646.73,456.87,654.25,451.72z"/>
	<path class="st1" d="M756.26,389.37c0.63,0,1.19-0.27,1.66-0.83c0.48-0.55,0.79-1.07,0.95-1.54c2.85-6.49,5.78-11.56,8.79-15.2
		c3.01-3.64,7.36-6.41,13.06-8.31c5.7-1.9,13.46-2.85,23.28-2.85v30.88c-1.9-0.16-4.51-0.24-7.84-0.24
		c-14.1,0-23.91,3.29-29.45,9.86c-5.54,6.57-8.31,17.38-8.31,32.42v54.39H728V362.53h30.4v6.89c0,4.91-1.19,9.74-3.56,14.49
		c-0.63,1.27-0.95,2.3-0.95,3.09c0,1.27,0.71,2.06,2.14,2.38H756.26z"/>
	<path class="st1" d="M934.51,332.01c12.74,7.52,22.05,17.58,27.91,30.16c5.86,12.59,8.79,26.64,8.79,42.16
		c0,15.52-3.01,29.57-9.03,42.16c-6.02,12.59-15.44,22.65-28.26,30.16c-12.83,7.52-28.98,11.28-48.45,11.28H823V320.73h62.47
		C905.42,320.73,921.77,324.49,934.51,332.01z M916.46,451.72c7.52-5.14,13.14-11.91,16.86-20.31c3.72-8.39,5.58-17.42,5.58-27.08
		c0-9.66-1.86-18.68-5.58-27.08c-3.72-8.39-9.34-15.16-16.86-20.31c-7.52-5.14-16.67-7.72-27.43-7.72H855.3v110.21h33.73
		C899.8,459.44,908.94,456.87,916.46,451.72z"/>
	<path class="st1" d="M1018.48,389.37c0.63,0,1.19-0.27,1.66-0.83c0.47-0.55,0.79-1.07,0.95-1.54c2.85-6.49,5.78-11.56,8.79-15.2
		c3.01-3.64,7.36-6.41,13.06-8.31c5.7-1.9,13.46-2.85,23.28-2.85v30.88c-1.9-0.16-4.51-0.24-7.84-0.24
		c-14.1,0-23.91,3.29-29.45,9.86c-5.54,6.57-8.31,17.38-8.31,32.42v54.39h-30.4V362.53h30.4v6.89c0,4.91-1.19,9.74-3.56,14.49
		c-0.63,1.27-0.95,2.3-0.95,3.09c0,1.27,0.71,2.06,2.14,2.38H1018.48z"/>
	<path class="st1" d="M1173.57,369.18c9.5,5.7,16.78,13.46,21.85,23.28c5.07,9.82,7.6,20.75,7.6,32.78c0,12.04-2.54,22.96-7.6,32.78
		c-5.07,9.82-12.35,17.58-21.85,23.28c-9.5,5.7-20.59,8.55-33.25,8.55c-12.67,0-23.75-2.85-33.25-8.55
		c-9.5-5.7-16.79-13.46-21.85-23.28c-5.07-9.82-7.6-20.74-7.6-32.78c0-12.03,2.53-22.96,7.6-32.78
		c5.07-9.82,12.35-17.58,21.85-23.28c9.5-5.7,20.58-8.55,33.25-8.55C1152.99,360.63,1164.07,363.48,1173.57,369.18z M1163.95,451.72
		c5.78-7.04,8.67-15.87,8.67-26.48c0-10.61-2.89-19.44-8.67-26.48c-5.78-7.04-13.66-10.57-23.63-10.57
		c-9.98,0-17.86,3.53-23.63,10.57c-5.78,7.05-8.67,15.88-8.67,26.48c0,10.61,2.89,19.44,8.67,26.48
		c5.78,7.05,13.66,10.57,23.63,10.57C1150.3,462.29,1158.17,458.77,1163.95,451.72z"/>
	<path class="st1" d="M1222.02,316.93h30.4v30.4h-30.4V316.93z M1222.02,362.53h30.4v125.41h-30.4V362.53z"/>
	<path class="st1" d="M1396.83,487.94h-30.4v-5.46c0-4.12,1.11-8.39,3.33-12.83c0.79-1.27,1.19-2.45,1.19-3.56
		c0-0.95-0.56-1.66-1.66-2.14l-0.71-0.24c-0.95,0-1.62,0.4-2.02,1.19c-0.4,0.79-0.68,1.27-0.83,1.42
		c-4.91,7.29-10.53,13.03-16.86,17.22c-6.33,4.2-13.94,6.29-22.8,6.29c-10.61,0-20.07-2.85-28.38-8.55
		c-8.31-5.7-14.77-13.46-19.36-23.28c-4.59-9.82-6.89-20.74-6.89-32.78c0-12.03,2.29-22.96,6.89-32.78
		c4.59-9.82,11.04-17.58,19.36-23.28c8.31-5.7,17.77-8.55,28.38-8.55c9.34,0,17.38,2.1,24.11,6.29c6.73,4.2,11.91,9.86,15.56,16.98
		c1.27,2.69,2.69,3.64,4.28,2.85c0.79-0.48,1.19-1.19,1.19-2.14s-0.47-2.38-1.42-4.28c-2.22-4.43-3.33-8.79-3.33-13.06v-50.35h30.4
		V487.94z M1350.52,457.3c5.07-3.33,8.98-7.84,11.76-13.54c2.77-5.7,4.16-11.88,4.16-18.53s-1.39-12.83-4.16-18.53
		c-2.77-5.7-6.69-10.21-11.76-13.54c-5.07-3.33-10.85-4.99-17.34-4.99c-10.14,0-17.9,3.53-23.28,10.57
		c-5.38,7.05-8.08,15.88-8.08,26.48c0,10.61,2.69,19.44,8.08,26.48c5.38,7.05,13.14,10.57,23.28,10.57
		C1339.67,462.29,1345.45,460.63,1350.52,457.3z"/>
</g>
</svg>
