<svg width="83" height="21" viewBox="0 0 83 21" fill="none" xmlns="http://www.w3.org/2000/svg" aria-label="Subscribe with PayPal"><path d="M15.4059 1.58956C14.426 0.479046 12.6839 0 10.4192 0H3.88644C3.42915 0 3.03719 0.32662 2.97186 0.78389L0.249875 18.0077C0.206323 18.3561 0.467633 18.661 0.794271 18.661H4.82281L5.8245 12.2374L5.80272 12.4334C5.86805 11.9761 6.26001 11.6495 6.71731 11.6495H8.63358C12.4008 11.6495 15.3406 10.1253 16.1898 5.70499C16.2116 5.57434 16.2334 5.4437 16.2551 5.31305C16.56 3.70171 16.2987 2.5912 15.4059 1.58956Z" fill="#003087"></path><path d="M64.7082 9.79706C64.4687 11.4084 63.2275 11.4084 62.0298 11.4084H61.3547L61.8338 8.3817C61.8556 8.2075 62.0298 8.05508 62.204 8.05508H62.5089C63.3146 8.05508 64.0985 8.05508 64.4905 8.51235C64.73 8.8172 64.7953 9.20914 64.7082 9.79706ZM64.1856 5.57275H59.678C59.3731 5.57275 59.1118 5.7905 59.0683 6.09535L57.2391 17.636C57.1956 17.8537 57.3698 18.0715 57.6093 18.0715H59.9175C60.1353 18.0715 60.3095 17.9191 60.3531 17.7013L60.8757 14.4351C60.9192 14.1302 61.1805 13.9125 61.4854 13.9125H62.9008C65.8623 13.9125 67.5826 12.4754 68.0182 9.62287C68.2141 8.3817 68.0182 7.40184 67.452 6.72682C66.8205 5.9647 65.6881 5.57275 64.1856 5.57275Z" fill="#009CDE"></path><path d="M32.5852 9.79706C32.3456 11.4084 31.1044 11.4084 29.9068 11.4084H29.2317L29.7108 8.3817C29.7325 8.2075 29.9068 8.05508 30.081 8.05508H30.3858C31.1915 8.05508 31.9755 8.05508 32.3674 8.51235C32.607 8.8172 32.6723 9.20914 32.5852 9.79706ZM32.0626 5.57275H27.555C27.2501 5.57275 26.9888 5.7905 26.9452 6.09535L25.1161 17.636C25.0725 17.8537 25.2467 18.0715 25.4863 18.0715H27.6421C27.9469 18.0715 28.2082 17.8537 28.2518 17.5489L28.7526 14.4351C28.7962 14.1302 29.0575 13.9125 29.3624 13.9125H30.7778C33.7393 13.9125 35.4596 12.4754 35.8951 9.62287C36.0911 8.3817 35.8951 7.40184 35.3289 6.72682C34.7192 5.9647 33.5869 5.57275 32.0626 5.57275Z" fill="#003087"></path><path d="M42.5181 13.9246C42.3004 15.1657 41.3422 15.9932 40.0792 15.9932C39.4477 15.9932 38.9469 15.7972 38.642 15.4053C38.3154 15.0351 38.2065 14.4907 38.2936 13.881C38.4896 12.6616 39.4913 11.8124 40.7107 11.8124C41.3205 11.8124 41.8213 12.0084 42.1479 12.4004C42.4964 12.7923 42.627 13.3367 42.5181 13.9246ZM45.5232 9.74383H43.3674C43.1932 9.74383 43.019 9.87448 42.9972 10.0704L42.9101 10.6801L42.7577 10.4624C42.3004 9.78738 41.2551 9.54785 40.2099 9.54785C37.8363 9.54785 35.7894 11.3552 35.3974 13.881C35.2014 15.144 35.4845 16.3416 36.2031 17.1908C36.8564 17.9747 37.7928 18.2795 38.9251 18.2795C40.8414 18.2795 41.9084 17.0384 41.9084 17.0384L41.8213 17.6481C41.7778 17.8658 41.952 18.0836 42.1915 18.0836H44.1296C44.4344 18.0836 44.6957 17.8658 44.7393 17.561L45.9152 10.1793C45.937 9.9398 45.7627 9.74383 45.5232 9.74383Z" fill="#003087"></path><path d="M74.6421 13.9246C74.4244 15.1657 73.4662 15.9932 72.2032 15.9932C71.5717 15.9932 71.0709 15.7972 70.766 15.4053C70.4394 15.0351 70.3305 14.4907 70.4176 13.881C70.6136 12.6616 71.6153 11.8124 72.8347 11.8124C73.4445 11.8124 73.9453 12.0084 74.272 12.4004C74.5986 12.7923 74.7292 13.3367 74.6421 13.9246ZM77.6472 9.74383H75.4914C75.3172 9.74383 75.143 9.87448 75.1212 10.0704L75.0341 10.6801L74.8817 10.4624C74.4244 9.78738 73.3791 9.54785 72.3339 9.54785C69.9603 9.54785 67.9134 11.3552 67.5214 13.881C67.3255 15.144 67.6086 16.3416 68.3272 17.1908C68.9804 17.9747 69.9168 18.2795 71.0491 18.2795C72.9654 18.2795 74.0324 17.0384 74.0324 17.0384L73.9453 17.6481C73.9018 17.8658 74.076 18.0836 74.3155 18.0836H76.2536C76.5584 18.0836 76.8197 17.8658 76.8633 17.561L78.0392 10.1793C78.061 9.9398 77.8867 9.74383 77.6472 9.74383Z" fill="#009CDE"></path><path d="M57.0112 9.72607H54.8336C54.6159 9.72607 54.4417 9.83495 54.311 10.0091L51.3495 14.4077L50.0865 10.1833C49.9994 9.92205 49.7599 9.72607 49.4768 9.72607H47.3428C47.0814 9.72607 46.9072 9.98737 46.9943 10.2269L49.3897 17.2384L47.1468 20.3957C46.9726 20.6352 47.1468 20.9836 47.4516 20.9836H49.6074C49.8034 20.9836 49.9994 20.8748 50.1301 20.7223L57.3379 10.314C57.4903 10.0745 57.3161 9.72607 57.0112 9.72607Z" fill="#003087"></path><path d="M80.1838 5.87931L78.3329 17.6377C78.2893 17.8554 78.4635 18.0732 78.7031 18.0732H80.554C80.8589 18.0732 81.1202 17.8554 81.1637 17.5506L82.9929 6.00996C83.0364 5.79221 82.8622 5.57446 82.6227 5.57446H80.554C80.3798 5.57446 80.2274 5.70511 80.1838 5.87931Z" fill="#009CDE"></path><path d="M15.4059 1.58956C14.426 0.479046 12.6839 0 10.4192 0H3.88644C3.42915 0 3.03719 0.32662 2.97186 0.78389L0.249875 18.0077C0.206323 18.3561 0.467633 18.661 0.794271 18.661H4.82281L5.8245 12.2374L5.80272 12.4334C5.86805 11.9761 6.26001 11.6495 6.71731 11.6495H8.63358C12.4008 11.6495 15.3406 10.1253 16.1898 5.70499C16.2116 5.57434 16.2334 5.4437 16.2551 5.31305C16.56 3.70171 16.2987 2.5912 15.4059 1.58956Z" fill="#003087"></path><path d="M6.9624 5.35802C7.00595 5.07494 7.18016 4.8572 7.41969 4.74832C7.52857 4.70478 7.63745 4.66122 7.76811 4.66122H12.8637C13.4734 4.66122 14.0395 4.70477 14.5404 4.79187C14.6928 4.81365 14.8235 4.83542 14.9759 4.87897C15.1066 4.90075 15.259 4.9443 15.3896 4.98785C15.455 5.00962 15.5203 5.0314 15.5856 5.05317C15.8469 5.14027 16.0865 5.22737 16.2825 5.35802C16.5438 3.72491 16.2825 2.61439 15.3896 1.61275C14.4097 0.502239 12.6677 0.0231934 10.403 0.0231934H3.87023C3.41294 0.0231934 3.02097 0.349817 2.95565 0.807087L0.277218 18.0092C0.233667 18.3576 0.494977 18.6624 0.821614 18.6624H4.85014L5.85183 12.2388L6.9624 5.35802Z" fill="#003087"></path><path d="M16.3033 5.34448C16.2815 5.47513 16.2597 5.60578 16.2379 5.73643C15.3887 10.1567 12.4272 11.6809 8.68173 11.6809H6.76546C6.30816 11.6809 5.9162 12.0076 5.85087 12.4648L4.84918 18.6707L4.5661 20.4344C4.52254 20.7393 4.7403 21.0006 5.04516 21.0006H8.44219C8.83416 21.0006 9.18257 20.7175 9.2479 20.3038L9.29145 20.1296L9.92295 16.0795L9.9665 15.8617C10.0318 15.4698 10.3802 15.1649 10.7722 15.1649H11.2731C14.5612 15.1649 17.1307 13.8366 17.8929 9.96074C18.1978 8.3494 18.0453 6.99937 17.2179 6.04127C16.9783 5.7582 16.6517 5.54046 16.3033 5.34448Z" fill="#009CDE"></path><path d="M15.4014 4.97555C15.2707 4.932 15.1401 4.91022 14.9877 4.86667C14.857 4.8449 14.7046 4.80135 14.5521 4.77958C14.0295 4.69248 13.4634 4.64893 12.8754 4.64893H7.75807C7.62742 4.64893 7.51854 4.6707 7.40966 4.73602C7.17013 4.8449 6.99592 5.06265 6.95237 5.34572L5.86357 12.2266L5.8418 12.4225C5.90712 11.9653 6.29909 11.6386 6.75638 11.6386H8.67266C12.4399 11.6386 15.3796 10.1144 16.2289 5.69412C16.2507 5.56347 16.2724 5.43282 16.2942 5.30217C16.0765 5.1933 15.8369 5.08442 15.5974 4.99732C15.5321 5.0191 15.4667 4.99732 15.4014 4.97555Z" fill="#012169"></path></svg>